<svg width="48" height="48" viewBox="0 0 48 48" fill="none" xmlns="http://www.w3.org/2000/svg">
<g id="24 / arrows / circle-arrow-top">
<path id="icon" fill-rule="evenodd" clip-rule="evenodd" d="M24 46C11.8497 46 2 36.1503 2 24C2 11.8497 11.8497 2 24 2C36.1503 2 46 11.8497 46 24C46 36.1503 36.1503 46 24 46ZM24 42C33.9411 42 42 33.9411 42 24C42 14.0589 33.9411 6 24 6C14.0589 6 6 14.0589 6 24C6 33.9411 14.0589 42 24 42ZM26 34V20.8284L30.5858 25.4142L33.4142 22.5858L24 13.1716L14.5858 22.5858L17.4142 25.4142L22 20.8284V34H26Z" fill="#6A9515"/>
</g>
</svg>
